<!-- Generated by IcoMoon.io -->
<svg version="1.1" xmlns="http://www.w3.org/2000/svg" width="512" height="448" viewBox="0 0 512 448">
<title></title>
<g id="icomoon-ignore">
</g>
<path d="M53 192l155.75 166.25-75-166.25h-80.75zM256 385l87.25-193h-174.5zM134.5 160l51-96h-65.5l-72 96h86.5zM303.25 358.25l155.75-166.25h-80.75zM170.75 160h170.5l-51-96h-68.5zM377.5 160h86.5l-72-96h-65.5zM412.75 38.5l96 128c4.75 6 4.25 14.75-1 20.5l-240 256c-3 3.25-7.25 5-11.75 5s-8.75-1.75-11.75-5l-240-256c-5.25-5.75-5.75-14.5-1-20.5l96-128c3-4.25 7.75-6.5 12.75-6.5h288c5 0 9.75 2.25 12.75 6.5z"></path>
</svg>
